<?xml version="1.0" encoding="utf-8"?>
<!-- Generator: Adobe Illustrator 15.1.0, SVG Export Plug-In . SVG Version: 6.00 Build 0)  -->
<!DOCTYPE svg PUBLIC "-//W3C//DTD SVG 1.1//EN" "http://www.w3.org/Graphics/SVG/1.1/DTD/svg11.dtd">
<svg version="1.1" id="Layer_1" xmlns="http://www.w3.org/2000/svg" xmlns:xlink="http://www.w3.org/1999/xlink" x="0px" y="0px"
	 width="792px" height="326.822px" viewBox="0 0 792 326.822" enable-background="new 0 0 792 326.822" xml:space="preserve">
<g>
	<path fill="#005747" d="M236.533,127.726h8.355c-4.623-54.139-47.804-97.226-101.973-101.71v8.458
		C192.442,38.961,231.86,78.27,236.533,127.726"/>
	<path fill="#005747" d="M37.719,139.1c-0.003-0.04-0.003-0.089-0.007-0.13h-8.053c4.364,54.402,47.65,97.775,102.008,102.273
		v-7.937C81.728,228.913,41.978,189.079,37.719,139.1"/>
	<path fill="#005747" d="M131.667,34.462v-8.446C77.502,30.5,34.313,73.586,29.693,127.726h8.137
		C42.515,78.194,82.05,38.846,131.667,34.462"/>
	<path fill="#005747" d="M169.57,97.733c2.242-3.924,1.409-8.587-1.121-12.333c-6.445-9.507-7.006-20.722-7.006-20.722
		s-2.524,2.787-4.205,3.905c-1.681,1.125-10.651,11.213-5.606,22.415c5.044,11.208,1.239,27.399,1.239,27.399
		S167.327,101.656,169.57,97.733 M181.905,72.665c-2.243,0-15.138-3.36-11.773,2.806c5.534,10.146,6.163,19.617,6.163,19.617
		c5.396-2.09,13.454,3.922,19.061,5.609c5.606,1.682,3.361-7.295,2.238-11.77c-1.121-4.486,0.563-15.693,0.563-15.693
		C195.914,75.471,184.145,72.665,181.905,72.665 M155.615,119.764c0,0,14.535-4.216,25.747,0.838
		c11.208,5.041,21.294-3.932,22.417-5.611c1.123-1.68,3.904-4.204,3.904-4.204s-11.21-0.556-20.718-7.01
		c-3.74-2.531-8.408-3.361-12.332-1.125C170.709,104.902,155.615,119.764,155.615,119.764 M231.329,127.726h-88.415V39.689
		C189.576,44.136,226.688,81.132,231.329,127.726"/>
	<path fill="#005747" d="M106.2,171.086c-2.243,3.923-1.416,8.587,1.121,12.332c6.441,9.507,7.003,20.722,7.003,20.722
		s2.524-2.781,4.204-3.904c1.682-1.119,10.648-11.215,5.605-22.416c-5.042-11.212-1.236-27.391-1.236-27.391
		S108.439,167.162,106.2,171.086 M93.863,196.146c2.245,0,15.136,3.36,11.771-2.799c-5.533-10.146-6.162-19.617-6.162-19.617
		c-5.396,2.096-13.454-3.921-19.061-5.609c-5.606-1.681-3.361,7.291-2.239,11.769c1.121,4.493-0.562,15.693-0.562,15.693
		C79.854,193.361,91.622,196.146,93.863,196.146 M120.152,149.061c0,0-14.534,4.211-25.747-0.838
		c-11.208-5.047-21.297,3.924-22.418,5.599c-1.122,1.687-3.905,4.217-3.905,4.217s11.211,0.557,20.722,7.004
		c3.739,2.53,8.405,3.36,12.329,1.124C105.056,163.916,120.152,149.061,120.152,149.061 M131.667,138.97v89.138
		c-47.114-4.384-84.581-41.961-88.753-89.138H131.667z"/>
	<path fill="#005747" d="M121.711,118.397c0,0-3.804-16.191,1.24-27.399c5.045-11.202-3.926-21.29-5.607-22.415
		c-1.68-1.118-4.204-3.905-4.204-3.905s-0.563,11.215-7.007,20.722c-2.533,3.746-3.364,8.409-1.121,12.333
		C107.254,101.656,121.711,118.397,121.711,118.397 M76.424,73.234c0,0,1.684,11.207,0.563,15.693
		c-1.119,4.474-3.368,13.451,2.238,11.77c5.608-1.687,13.665-7.699,19.061-5.609c0,0,0.629-9.471,6.166-19.617
		c3.361-6.166-9.532-2.806-11.776-2.806C90.437,72.665,78.668,75.471,76.424,73.234 M99.947,102.652
		c-3.923-2.236-8.59-1.406-12.328,1.125c-9.511,6.454-20.721,7.01-20.721,7.01s2.785,2.524,3.904,4.204
		c1.125,1.679,11.209,10.652,22.421,5.611c11.207-5.055,25.745-0.838,25.745-0.838S103.872,104.902,99.947,102.652 M131.667,127.726
		H43.035c4.649-46.669,41.878-83.705,88.632-88.062V127.726z"/>
</g>
<g>
	<path fill="#005747" d="M215.906,193.229c0.858,0.337,0.776,2.128-0.169,2.473c-3.688-0.181-7.023-0.229-10.438-0.229
		c-4.009,0-7.686,0.049-11.457,0.229c-0.686-0.345-1.027-1.964-0.172-2.473l2.313-0.428c3.434-0.508,3.688-1.192,3.688-7.009V158.75
		v-7.96h-0.169c-2.316,4.708-3.52,7.278-5.147,10.704l-7.373,15.05c-2.913,5.998-7.205,15.494-8.746,19.487
		c-0.341,0.353-1.626,0.353-2.23,0c-1.455-4.594-5.143-12.98-7.114-17.26l-7.629-16.424c-1.635-3.598-3.947-8.988-4.974-11.558
		h-0.168c-0.177,4.197-0.35,10.877-0.518,14.466c-0.172,5.217-0.341,12.832-0.341,19.849c0,5.653,0.086,7.017,3.771,7.616
		l2.826,0.509c0.604,0.508,0.604,2.128-0.082,2.473c-3.176-0.181-5.833-0.229-9.021-0.229c-2.749,0-5.833,0.049-9.181,0.229
		c-0.772-0.427-0.772-2.045-0.254-2.473l1.458-0.173c4.111-0.509,4.798-1.791,5.311-7.016c0.682-5.389,0.859-10.951,1.285-19.848
		c0.346-5.817,0.864-12.915,0.864-18.141c0-4.024-1.29-5.816-4.634-6.325l-2.917-0.526c-0.509-0.6-0.427-2.242,0.35-2.505
		c2.567,0.173,4.879,0.205,8.059,0.205c3.023,0,6.019,0.059,9.193-0.205c0.34,5.167,2.571,9.62,4.716,14.237l9.432,19.766
		c0.685,1.455,2.911,5.734,4.033,7.698c1.368-2.473,2.567-4.879,4.453-8.897l8.063-16.431c2.74-5.644,5.484-10.696,6.938-16.373
		c2.305,0.173,5.118,0.205,6.992,0.205c3.59,0,6.584-0.032,8.988-0.205c0.945,0.354,1.113,1.997,0.258,2.505l-2.826,0.435
		c-3.771,0.519-4.625,1.964-4.625,6.499c0,12.668,0.164,25.337,0.768,37.997c0.258,5.734,1.199,6.335,3.938,6.671L215.906,193.229z"
		/>
	<path fill="#005747" d="M239.168,160.458c-9.982,0-18.739,7.213-18.739,18.715c0,11.247,8.243,17.515,18.061,17.515
		c10.151,0,18.736-6.358,18.736-18.543C257.226,166.98,248.812,160.458,239.168,160.458 M230.562,177.891
		c0-9.53,3.409-13.999,7.756-13.999c6.301,0,8.778,8.495,8.778,15.708c0,6.605-1.708,13.654-7.587,13.654
		C233.371,193.254,230.562,185.695,230.562,177.891"/>
	<path fill="#005747" d="M267.49,172.601c0-3.862,0-4.889-2.14-6.178l-1.027-0.591c-0.253-0.346-0.253-1.545,0.087-1.972
		c3.685-1.192,8.236-3.072,10.811-4.617c0.509,0,1.027,0.262,1.2,0.772c-0.082,1.626-0.172,3.081-0.172,3.845
		c0,0.607,0.349,1.036,0.862,1.036c2.649-1.89,5.48-4.454,8.396-4.454c2.999,0,4.712,1.971,4.712,4.19
		c0,3.335-2.485,4.954-4.798,4.954c-0.858,0-1.626-0.255-2.312-0.684c-2.144-1.444-3.598-1.618-4.111-1.618
		c-1.973,0-2.486,1.964-2.486,6.17v11.764c0,6.359,0.341,7.296,3.34,7.642l3.343,0.343c0.6,0.593,0.513,2.137-0.176,2.481
		c-5.138-0.173-8.055-0.196-11.231-0.196c-2.834,0-5.665,0.023-8.922,0.196c-0.682-0.344-0.768-1.888-0.172-2.481l1.544-0.262
		c2.913-0.427,3.253-1.364,3.253-7.723V172.601z"/>
	<path fill="#005747" d="M297.395,172.601c0-3.862,0-4.889-2.141-6.178l-1.031-0.591c-0.258-0.346-0.258-1.545,0.091-1.972
		c3.681-1.192,8.232-3.072,10.811-4.617c0.515,0,1.031,0.262,1.2,0.772c-0.086,1.626-0.168,3.081-0.168,3.845
		c0,0.607,0.341,1.036,0.858,1.036c2.654-1.89,5.48-4.454,8.392-4.454c2.999,0,4.716,1.971,4.716,4.19
		c0,3.335-2.485,4.954-4.802,4.954c-0.854,0-1.631-0.255-2.313-0.684c-2.14-1.444-3.598-1.618-4.111-1.618
		c-1.972,0-2.485,1.964-2.485,6.17v11.764c0,6.359,0.345,7.296,3.339,7.642l3.344,0.343c0.595,0.593,0.517,2.137-0.173,2.481
		c-5.143-0.173-8.055-0.196-11.235-0.196c-2.83,0-5.664,0.023-8.922,0.196c-0.682-0.344-0.768-1.889-0.168-2.481l1.544-0.262
		c2.913-0.427,3.253-1.364,3.253-7.723V172.601z"/>
	<path fill="#005747" d="M325.659,143.765c0-3.089,2.223-5.398,5.489-5.398s5.496,2.309,5.496,5.398c0,3.088-2.23,5.404-5.496,5.404
		S325.659,146.853,325.659,143.765 M335.703,185.286c0,6.342,0.34,7.294,3.253,7.722l1.544,0.247
		c0.596,0.591,0.513,2.111-0.172,2.449c-3.171-0.173-6.087-0.231-9.264-0.231c-2.833,0-5.754,0.059-9.007,0.231
		c-0.686-0.338-0.773-1.858-0.168-2.449l1.536-0.247c2.917-0.427,3.261-1.379,3.261-7.722v-12.62c0-3.853,0-4.88-2.144-6.169
		l-1.026-0.6c-0.259-0.346-0.259-1.545,0.086-1.972c4.457-1.29,8.75-3.18,11.157-4.633c0.513,0.082,0.945,0.247,1.195,0.681
		c-0.168,2.835-0.25,6.951-0.25,10.466V185.286z"/>
	<path fill="#005747" d="M346.292,193.976c-0.859-1.634-1.372-6.02-1.2-9.719c0.518-0.698,1.799-0.778,2.403-0.172
		c1.545,4.814,4.725,9.383,9.276,9.383c2.662,0,4.814-1.807,4.814-4.823c0-3.18-2.835-5.25-5.846-6.711
		c-4.46-2.153-9.106-5.34-9.106-10.854c-0.086-6.711,5.672-10.639,12.799-10.639c3.528,0,6.786,1.019,7.99,1.701
		c0.857,1.79,1.289,4.46,1.289,8.338c-0.258,0.69-1.721,0.944-2.32,0.428c-1.286-3.961-4.034-7.231-7.381-7.231
		c-2.752,0-4.806,1.989-4.806,4.47c0,2.506,2.485,4.313,5.746,5.867c4.638,2.234,9.534,5.159,9.534,11.961
		c0,7.493-6.613,10.73-13.395,10.73C352.565,196.705,349.041,196.014,346.292,193.976"/>
	<path fill="#005747" d="M422.918,174.481c2.402,0,2.662,0,3.491,2.318l4.018,11.658c1.117,3.679,0.858,4.205-2.23,4.551
		l-1.873,0.247c-0.486,0.509-0.403,2.02,0.242,2.448c3.007-0.083,6.771-0.23,10.441-0.23c4.444,0,7.608,0.058,11.107,0.23
		c0.601-0.428,0.601-1.857-0.082-2.448l-1.281-0.247c-4.359-0.773-4.786-1.379-6.753-7.115l-12.315-35.91
		c-1.359-3.853-2.448-7.878-3.824-11.722c-0.341-0.427-0.768-0.691-1.458-0.691c-0.174,0-3.003,3.516-6.006,4.108
		c0.252,1.455-0.517,3.517-1.635,6.244l-11.761,30.512c-1.799,4.625-3.171,8.232-4.197,10.45c-1.286,2.826-2.227,3.599-4.708,3.951
		l-2.575,0.42c-0.6,0.754-0.514,2.02,0.082,2.448c3.003-0.173,5.656-0.23,8.486-0.23c3.513,0.083,6.347,0.058,9.092,0.23
		c0.685-0.337,0.775-1.857,0.171-2.448l-2.484-0.42c-3.18-0.435-3.525-0.699-1.809-5.743l3.525-10.293
		c0.768-2.318,0.686-2.318,2.917-2.318H422.918z M412.87,170.604c-2.062,0-2.316,0-1.371-2.489l3.606-10.007
		c1.541-4.017,2.229-6.162,2.575-6.753h0.168c0.436,0.592,0.944,2.22,2.407,6.753l3.603,10.27c0.686,2.054,0.345,2.227-2.058,2.227
		H412.87z"/>
	<path fill="#005747" d="M454.97,172.601c0-3.862,0-4.889-2.141-6.178l-1.025-0.591c-0.26-0.346-0.26-1.545,0.085-1.972
		c3.688-1.192,8.236-3.072,10.812-4.617c0.513,0,1.03,0.262,1.203,0.772c-0.087,1.626-0.173,3.081-0.173,3.845
		c0,0.607,0.346,1.036,0.858,1.036c2.654-1.89,5.483-4.454,8.4-4.454c2.995,0,4.712,1.971,4.712,4.19
		c0,3.335-2.489,4.953-4.802,4.953c-0.854,0-1.632-0.254-2.313-0.683c-2.144-1.444-3.602-1.618-4.111-1.618
		c-1.972,0-2.485,1.964-2.485,6.17v11.764c0,6.359,0.341,7.296,3.34,7.642l3.343,0.343c0.596,0.593,0.515,2.137-0.173,2.481
		c-5.143-0.173-8.054-0.196-11.232-0.196c-2.835,0-5.666,0.023-8.923,0.196c-0.686-0.344-0.769-1.889-0.169-2.481l1.541-0.262
		c2.916-0.427,3.253-1.364,3.253-7.723V172.601z"/>
	<path fill="#005747" d="M492.33,147.297c0-3.681,0.086-8.971,0.258-12.389c-0.172-0.427-0.685-0.772-1.2-0.682
		c-3.522,1.364-7.988,3.156-11.241,4.1c-0.604,0.254-0.518,1.617,0,1.955l1.195,0.772c1.885,1.116,1.977,1.708,1.977,7.434v38.654
		c0,3.187-0.264,7.738-0.264,8.084c0,0.263,0.518,0.608,0.863,0.608c0.257,0,0.426,0,0.599-0.091c0.519-0.6,1.118-1.372,2.145-1.372
		c1.036,0,5.064,2.317,11.407,2.317c11.21,0,20.268-7.049,20.268-19.275c0-9.553-6.322-16.972-16.329-16.972
		c-3.425,0-6.252,1.1-8.987,2.711c-0.517,0-0.689-0.337-0.689-1.528V147.297z M492.33,170.694c0-2.924,0.173-4.042,0.944-4.56
		c0.681-0.518,2.48-1.126,4.193-1.126c6.08,0,11.383,5.432,11.383,15.504c0,7.319-3.166,12.743-8.9,12.743
		c-2.482,0-4.54-1.298-5.735-2.926c-1.367-1.806-1.885-4.821-1.885-8.609V170.694z"/>
	<path fill="#005747" d="M542.403,160.458c-9.981,0-18.74,7.213-18.74,18.714c0,11.248,8.24,17.516,18.057,17.516
		c10.16,0,18.74-6.359,18.74-18.543C560.46,166.98,552.048,160.458,542.403,160.458 M533.793,177.891
		c0-9.53,3.413-13.999,7.755-13.999c6.313,0,8.778,8.495,8.778,15.708c0,6.605-1.701,13.654-7.583,13.654
		C536.606,193.254,533.793,185.695,533.793,177.891"/>
	<path fill="#005747" d="M570.725,172.601c0-3.862,0-4.89-2.14-6.178l-1.027-0.591c-0.259-0.346-0.259-1.545,0.083-1.972
		c3.688-1.192,8.239-3.072,10.814-4.617c0.519,0,1.036,0.262,1.204,0.772c-0.086,1.626-0.168,3.08-0.168,3.845
		c0,0.607,0.337,1.036,0.854,1.036c2.649-1.89,5.483-4.454,8.396-4.454c2.997,0,4.716,1.971,4.716,4.19
		c0,3.335-2.485,4.953-4.802,4.953c-0.858,0-1.632-0.254-2.317-0.683c-2.14-1.444-3.595-1.618-4.112-1.618
		c-1.968,0-2.484,1.964-2.484,6.17v11.764c0,6.359,0.344,7.296,3.343,7.642l3.34,0.343c0.6,0.593,0.518,2.136-0.168,2.481
		c-5.143-0.173-8.061-0.196-11.235-0.196c-2.835,0-5.669,0.023-8.922,0.196c-0.686-0.346-0.768-1.889-0.167-2.481l1.539-0.262
		c2.912-0.427,3.253-1.364,3.253-7.723V172.601z"/>
	<path fill="#005747" d="M618.56,175.155c3.434,0,5.405-0.336,5.919-1.109c0.351-0.69,0.432-1.208,0.432-1.98
		c0-7.526-6.52-11.625-12.866-11.625c-11.469,0-18.024,9.382-18.024,19.109c0,9.816,6.556,17.155,16.484,17.155
		c5.229,0,11.571-2.556,14.493-9.4c-0.087-0.779-1.032-1.642-1.891-1.38c-1.971,3.188-4.802,4.304-8.235,4.304
		c-7.619,0-12.936-6.193-12.936-13.949c0-1.035,0.173-1.125,1.799-1.125H618.56z M603.825,171.721c-1.031,0-1.204-0.254-1.204-0.608
		c0-1.815,2.657-7.436,8.396-7.436c3.685,0,5.661,2.506,5.661,5.621c0,0.78-0.346,1.479-0.863,1.815
		c-0.595,0.354-1.712,0.608-4.198,0.608H603.825z"/>
	<path fill="#005747" d="M644.179,165.462c-1.544,0-1.63,0.172-1.63,2.916v13.209c0,5.415,0.771,10.221,6.256,10.221
		c1.714,0,2.744-0.609,4.111-1.545c0.772,0.084,1.282,0.766,1.113,1.709c-1.713,2.399-5.651,4.717-10.876,4.717
		c-8.159,0-9.621-4.717-9.621-10.721v-17.418c0-2.998-0.169-3.087-1.541-3.087h-2.998c-0.862-0.428-1.031-1.792-0.255-2.31
		c2.912-1.109,4.884-2.217,6.766-3.59c1.639-1.208,3.528-3,4.731-5.316c0.769-0.508,1.972-0.254,2.399,0.428v5.144
		c0,1.371,0,1.625,1.631,1.625h8.478c0.518,0.263,0.687,0.945,0.687,1.799c-0.087,1.02-0.427,1.792-1.113,2.219H644.179z"/>
	<path fill="#005747" d="M692.029,182.886c0,4.814,0.087,9.118,2.146,9.118c1.194,0,2.48-0.262,3.685-0.607
		c0.687,0.428,0.854,2.228-0.26,2.908c-3.771,0.428-10.376,1.545-14.068,3.254c-0.432-0.083-0.69-0.427-0.768-0.854
		c0.168-1.036,0.336-2.318,0.25-3.165c-0.082-0.689-0.342-0.943-0.859-0.943c-3.609,2.136-7.385,4.108-11.682,4.108
		c-7.729,0-10.221-4.274-10.221-11.413v-13.416c0-6.012-0.34-6.621-2.484-7.311l-1.195-0.345c-0.51-0.427-0.51-1.972,0.168-2.228
		c5.151-0.089,10.041-0.861,11.929-1.552c0.432,0.09,0.777,0.346,0.858,0.772c-0.168,1.035-0.258,3.096-0.258,7.312v13.243
		c0,5.069,0.945,9.809,7.044,9.809c1.98,0,4.211-0.78,5.674-2.16c0.854-0.863,1.026-1.634,1.026-4.806v-12.989
		c0-5.504-0.519-5.94-3.775-6.876l-1.379-0.436c-0.601-0.426-0.601-1.979,0.085-2.317c5.755-0.089,11.773-0.698,13.485-1.552
		c0.428,0.09,0.77,0.346,0.855,0.772c-0.169,1.635-0.256,4.132-0.256,7.312V182.886z"/>
	<path fill="#005747" d="M705.927,172.616c0-3.86,0-4.896-2.141-6.186l-1.031-0.599c-0.259-0.346-0.259-1.545,0.086-1.973
		c3.771-1.026,8.409-3.071,11.157-4.616c0.6,0,0.944,0.344,1.112,0.69c-0.168,1.626-0.168,3.253-0.168,3.926
		c0,0.608,0.251,0.773,0.769,0.855c4.21-2.218,6.445-4.272,12.286-4.272c3.692,0,6.523,1.971,7.728,3.598
		c0.517,0.772,1.029,1.282,1.379,1.282c0.342,0,0.854-0.262,1.891-0.854c4.032-2.48,6.949-4.025,10.987-4.025
		c7.218,0,10.479,4.798,10.479,11.485v13.309c0,6.352,0.341,7.295,3.262,7.724l1.881,0.263c0.77,0.591,0.343,2.136,0,2.481
		c-3.688-0.182-6.604-0.231-9.78-0.231c-2.834,0-5.75,0.05-8.844,0.231c-0.69-0.346-0.776-1.891-0.172-2.481l1.376-0.263
		c2.916-0.428,3.261-1.372,3.261-7.724v-11.681c0-4.552-1.548-7.979-6.962-7.979c-2.489,0-4.72,1.29-5.746,2.572
		c-0.863,1.035-1.036,2.062-1.036,4.469v12.619c0,6.352,0.35,7.295,3.266,7.813l1.285,0.174c0.604,0.591,0.519,2.136-0.168,2.481
		c-3.007-0.182-5.841-0.231-9.02-0.231c-2.83,0-5.751,0.05-8.585,0.231c-0.687-0.346-0.777-1.891-0.177-2.481l1.121-0.174
		c2.916-0.518,3.266-1.461,3.266-7.813v-11.681c0-4.552-1.553-7.979-6.531-7.979c-2.917,0-5.156,1.372-6.096,2.655
		c-1.035,1.379-1.118,2.152-1.118,5.495v11.509c0,6.352,0.341,7.295,3.262,7.813l1.295,0.174c0.6,0.591,0.508,2.136-0.178,2.481
		c-3.007-0.182-5.923-0.231-9.106-0.231c-2.826,0-5.66,0.05-8.914,0.231c-0.686-0.346-0.776-1.891-0.176-2.481l1.54-0.263
		c2.916-0.428,3.262-1.372,3.262-7.724V172.616z"/>
</g>
<g>
	<path fill="#005747" d="M151.144,228.613c0,6.257,1.699,11.043,8.361,11.043c6.125,0,9.345-4.113,9.345-11.269v-12.426
		c0-0.939-0.18-1.697-0.27-2.415c-0.223-1.611-1.744-2.236-3.844-2.457v-1.166h10.551v1.166c-2.146,0.22-3.623,0.846-3.846,2.457
		c-0.09,0.718-0.268,1.476-0.268,2.415v12.607c0,9.611-6.125,13.191-11.893,13.191c-9.525,0-12.475-4.832-12.475-12.919v-13.325
		c0-4.161,0.18-3.934-3.845-4.426v-1.166h12.027v1.166c-4.024,0.492-3.845,0.265-3.845,4.426V228.613z"/>
	<path fill="#005747" d="M200.601,241.221c-5.484-6.483-11.178-13.278-16.8-19.902v15.25c0,0.72,0.138,1.305,0.207,1.857
		c0.173,1.244,1.346,1.73,3.622,1.896v0.899h-8.453v-0.899c1.657-0.166,2.795-0.653,2.967-1.896c0.07-0.552,0.208-1.137,0.208-1.857
		v-16.254c-0.967-1.238-2.035-2.343-4.001-2.343v-0.898h6.278c5.14,6.243,10.488,12.593,15.628,18.835h0.068v-14.177
		c0-0.725-0.138-1.311-0.206-1.864c-0.173-1.244-1.346-1.724-3.623-1.896v-0.898h8.453v0.898c-1.622,0.173-2.796,0.653-2.967,1.896
		c-0.071,0.553-0.208,1.139-0.208,1.864v19.489H200.601z"/>
	<path fill="#005747" d="M218.299,236.907c0,3.209-0.138,3.035,2.967,3.415v0.899h-9.28v-0.899c3.105-0.379,2.967-0.206,2.967-3.415
		v-15.521c0-3.208,0.138-3.035-2.967-3.415v-0.898h9.28v0.898c-3.105,0.379-2.967,0.207-2.967,3.415V236.907z"/>
	<path fill="#005747" d="M235.962,217.971c-1.897,0-3.278,0.554-2.14,3.861c1.346,4.073,3.348,10.004,5.142,15.249
		c2.207-5.279,4.312-10.59,6.452-15.868c0.862-2.17-0.035-3.242-2.381-3.242v-0.898h7.452v0.898c-1,0-2.139,0.347-2.864,2.07
		c-2.897,7.068-5.829,14.111-8.727,21.179h-1.759c-2.105-5.964-4.451-12.626-6.555-18.49c-1.276-3.688-2.346-4.76-4.001-4.76v-0.898
		h9.383V217.971z"/>
	<path fill="#005747" d="M255.798,240.322c3.105-0.379,2.967-0.206,2.967-3.415v-15.521c0-3.208,0.139-3.035-2.967-3.415v-0.898
		h15.42v5.557h-0.896c-0.345-2.556-1.035-4.453-3.518-4.453h-4.692v9.864h2.899c2.173,0,3.103-0.858,3.173-3.002h0.897v7.349h-0.897
		c-0.07-2.03-0.861-3.242-3.173-3.242h-2.899v7.801c0,2.928,1.346,3.168,4.451,3.168c5.002,0,4.761-1.412,6.347-5.105h0.897
		l-1.035,6.21h-16.973V240.322z"/>
	<path fill="#005747" d="M285.398,229.427h2.863c3.002,0,4.383-2.277,4.383-6.177c0-3.76-2.072-5.072-4.589-5.072h-2.658V229.427z
		 M279.085,217.073h10.039c3.485,0,6.969,1.83,6.969,5.863c0,3.555-2.173,6.004-4.829,7.042l3.381,5.138
		c1.724,2.515,3.657,4.932,4.862,5.657v0.446h-3.55c-2.037,0-3.142-3.76-7.314-10.696h-3.244v6.383c0,3.209-0.138,3.035,2.967,3.415
		v0.899h-9.28v-0.899c3.104-0.379,2.967-0.206,2.967-3.415v-15.521c0-3.208,0.138-3.035-2.967-3.415V217.073z"/>
	<path fill="#005747" d="M316.588,222.211c-0.279-2.409-1.591-4.346-4.348-4.346c-2.003,0-3.797,1.038-3.797,3.587
		c0,2.416,2.417,3.868,5.869,6.457c3.654,2.722,4.826,4.479,4.826,7.348c0,4.1-4.207,6.376-8.348,6.376
		c-2.207,0-4.104-0.412-5.897-1.098c-0.14-0.072-0.243-0.213-0.243-0.486v-4.965h0.898c0.38,3.827,2.896,5.345,5.555,5.345
		c2.451,0,4.447-1.864,4.447-4.38c0-2.243-1.205-4.073-6.381-7.487c-1.864-1.246-4.173-2.589-4.173-6.35
		c0-3.102,3.447-5.552,7.415-5.552c1.481,0,3.452,0.173,4.83,0.653c0.207,0.074,0.241,0.207,0.241,0.378v4.521H316.588z"/>
	<path fill="#005747" d="M331.664,236.907c0,3.209-0.14,3.035,2.961,3.415v0.899h-9.278v-0.899c3.108-0.379,2.968-0.206,2.968-3.415
		v-15.521c0-3.208,0.14-3.035-2.968-3.415v-0.898h9.278v0.898c-3.102,0.379-2.961,0.207-2.961,3.415V236.907z"/>
	<path fill="#005747" d="M351.672,236.907c0,3.209-0.14,3.035,2.969,3.415v0.899h-9.286v-0.899c3.109-0.379,2.968-0.206,2.968-3.415
		v-18.729h-3.102c-3.001,0-3.694,1.896-4.832,4.174h-0.865l0.932-5.278h19.083l0.932,5.278h-0.865
		c-1.139-2.277-1.831-4.174-4.833-4.174h-3.102V236.907z"/>
	<path fill="#005747" d="M370.508,240.322c3.102-0.379,2.968-0.206,2.968-3.415v-5.311l-5.318-10.523
		c-1.138-2.243-2.103-3.102-3.688-3.102v-0.898h8.793v0.898c-2.616,0-2.376,1.312-1.518,3.102l4.18,8.66l4.759-8.66
		c1.171-2.103,0.067-3.102-1.97-3.102v-0.898h7.109v0.898c-0.965,0-1.897,0.446-2.829,2.103l-5.758,10.45
		c-0.346,0.693-0.419,1.658-0.419,2.523v3.859c0,3.209-0.133,3.035,2.968,3.415v0.899h-9.278V240.322z"/>
	<path fill="#005747" d="M417.181,224.235c0-4.653-2.816-4.833-3.528-4.833c-4.833,0-8.008,8.673-8.008,14.489
		c0,2.324,0.407,6.524,3.715,6.524C414.458,240.416,417.181,232.01,417.181,224.235 M401.531,232.953
		c0-5.856,5.052-14.622,12.521-14.622c5.95,0,7.241,4.028,7.241,8.046c0,4.92-3.934,15.383-12.474,15.383
		C403.096,241.76,401.531,237.153,401.531,232.953"/>
	<path fill="#005747" d="M443.784,219.808l-1.071,0.939h-5.857c-2.19,10.636-5.771,24.813-8.314,31.61h-2.016l6.396-31.61h-4.247
		l0.398-1.877h4.208c2.369-9.524,10.236-10.509,12.113-10.509c1.025,0,3.175,0.18,3.848,0.805l-0.539,2.948l-1.118,0.539
		c-0.626-1.204-2.058-2.594-3.935-2.594c-2.683,0-4.691,1.836-5.771,6.662l-0.485,2.149h6.569L443.784,219.808z"/>
	<path fill="#005747" d="M471.061,235.635c0,4.154-0.181,3.934,3.841,4.428v1.158h-12.028v-1.158
		c4.027-0.494,3.847-0.273,3.847-4.428v-20.12c0-4.161,0.181-3.935-3.847-4.426v-1.165h11.715c7.421,0,11.089,2.948,11.089,8.32
		c0,6.436-5.811,9.924-12.653,9.518v-0.892c5.591,0.087,8.18-3.262,8.18-8.181c0-5.01-2.409-7.335-7.42-7.335h-2.723V235.635z"/>
	<path fill="#005747" d="M491.84,240.322c3.108-0.379,2.969-0.206,2.969-3.415v-15.521c0-3.208,0.14-3.035-2.969-3.415v-0.898
		h15.422v5.557h-0.898c-0.346-2.556-1.031-4.453-3.514-4.453h-4.693v9.864h2.896c2.177,0,3.108-0.858,3.176-3.002h0.898v7.349
		h-0.898c-0.067-2.03-0.865-3.242-3.176-3.242h-2.896v7.801c0,2.928,1.345,3.168,4.445,3.168c5.007,0,4.767-1.412,6.352-5.105h0.897
		l-1.038,6.21H491.84V240.322z"/>
	<path fill="#005747" d="M537.24,241.221c-5.484-6.483-11.176-13.278-16.799-19.902v15.25c0,0.72,0.14,1.305,0.205,1.857
		c0.174,1.244,1.346,1.73,3.621,1.896v0.899h-8.446v-0.899c1.65-0.166,2.789-0.653,2.963-1.896c0.073-0.552,0.205-1.137,0.205-1.857
		v-16.254c-0.964-1.238-2.029-2.343-3.999-2.343v-0.898h6.276c5.145,6.243,10.489,12.593,15.628,18.835h0.073v-14.177
		c0-0.725-0.14-1.311-0.207-1.864c-0.173-1.245-1.344-1.724-3.628-1.896v-0.898h8.453v0.898c-1.616,0.173-2.794,0.652-2.961,1.896
		c-0.073,0.553-0.214,1.139-0.214,1.864v19.489H537.24z"/>
	<path fill="#005747" d="M568.151,241.221c-5.485-6.483-11.176-13.278-16.801-19.902v15.25c0,0.72,0.141,1.305,0.207,1.857
		c0.173,1.244,1.345,1.73,3.621,1.896v0.899h-8.446v-0.899c1.65-0.166,2.789-0.653,2.961-1.896c0.074-0.552,0.207-1.137,0.207-1.857
		v-16.254c-0.966-1.238-2.03-2.343-4-2.343v-0.898h6.276c5.145,6.243,10.489,12.593,15.629,18.835h0.072v-14.177
		c0-0.725-0.14-1.311-0.206-1.864c-0.173-1.245-1.345-1.724-3.628-1.896v-0.898h8.453v0.898c-1.617,0.173-2.795,0.652-2.961,1.896
		c-0.074,0.553-0.214,1.139-0.214,1.864v19.489H568.151z"/>
	<path fill="#005747" d="M590.608,222.211c-0.273-2.409-1.584-4.346-4.346-4.346c-1.997,0-3.794,1.038-3.794,3.587
		c0,2.416,2.416,3.868,5.863,6.457c3.66,2.722,4.832,4.479,4.832,7.348c0,4.1-4.207,6.376-8.347,6.376
		c-2.21,0-4.106-0.412-5.903-1.099c-0.134-0.071-0.239-0.212-0.239-0.485v-4.965h0.897c0.38,3.827,2.896,5.345,5.552,5.345
		c2.45,0,4.452-1.865,4.452-4.38c0-2.243-1.204-4.073-6.383-7.487c-1.863-1.246-4.173-2.59-4.173-6.35
		c0-3.102,3.448-5.552,7.415-5.552c1.483,0,3.454,0.173,4.832,0.653c0.206,0.074,0.239,0.207,0.239,0.378v4.521H590.608z"/>
	<path fill="#005747" d="M604.513,240.322c3.108-0.379,2.969-0.206,2.969-3.415v-5.311l-5.312-10.523
		c-1.138-2.243-2.103-3.102-3.693-3.102v-0.898h8.8v0.898c-2.622,0-2.384,1.312-1.518,3.102l4.173,8.66l4.759-8.66
		c1.172-2.103,0.073-3.102-1.963-3.102v-0.898h7.107v0.898c-0.971,0-1.902,0.446-2.828,2.103l-5.765,10.45
		c-0.346,0.692-0.411,1.658-0.411,2.523v3.859c0,3.209-0.14,3.035,2.962,3.415v0.899h-9.279V240.322z"/>
	<path fill="#005747" d="M625.485,240.322c3.108-0.379,2.97-0.206,2.97-3.415v-15.521c0-3.208,0.139-3.035-2.97-3.415v-0.898h9.285
		v0.898c-3.108,0.379-2.968,0.207-2.968,3.415v16.075c0,2.415,1.345,2.656,4.413,2.656c5.005,0,4.799-1.412,6.383-5.105h0.865
		l-1.038,6.21h-16.94V240.322z"/>
	<path fill="#005747" d="M655.504,217.971c-1.896,0-3.281,0.552-2.143,3.861c1.351,4.073,3.348,10.004,5.145,15.249
		c2.203-5.279,4.312-10.59,6.449-15.868c0.865-2.17-0.032-3.242-2.382-3.242v-0.898h7.454v0.898c-0.998,0-2.143,0.347-2.861,2.07
		c-2.902,7.068-5.83,14.111-8.732,21.179h-1.757c-2.104-5.964-4.454-12.626-6.558-18.49c-1.277-3.688-2.342-4.76-4-4.76v-0.898
		h9.385V217.971z"/>
	<path fill="#005747" d="M684.105,231.909l-3.661-11.216h-0.066l-4.107,11.216H684.105z M675.752,233.219l-1.584,4.62
		c-0.453,1.345,0.205,2.483,1.724,2.483v0.899h-6.277v-0.899c0.933,0,1.931-0.586,2.483-1.724
		c1.485-3.035,5.518-14.317,8.381-21.938h1.936c2.344,6.937,5.864,17.56,7.036,20.627c0.759,1.937,1.311,3.035,2.795,3.035v0.899
		h-8.04v-0.899c2.177,0,2.383-1.138,1.83-2.656l-1.484-4.447H675.752z"/>
	<path fill="#005747" d="M718.81,241.221c-5.484-6.483-11.183-13.278-16.8-19.902v15.25c0,0.72,0.133,1.305,0.205,1.857
		c0.175,1.244,1.346,1.73,3.623,1.896v0.899h-8.453v-0.899c1.656-0.166,2.794-0.653,2.968-1.896
		c0.067-0.552,0.207-1.137,0.207-1.857v-16.254c-0.967-1.238-2.038-2.343-4.001-2.343v-0.898h6.277
		c5.138,6.243,10.489,12.593,15.627,18.835h0.066v-14.177c0-0.725-0.132-1.311-0.206-1.864c-0.173-1.245-1.345-1.724-3.62-1.896
		v-0.898h8.453v0.898c-1.624,0.173-2.796,0.652-2.97,1.896c-0.066,0.553-0.205,1.139-0.205,1.864v19.489H718.81z"/>
	<path fill="#005747" d="M735.123,236.907c0,3.209-0.133,3.035,2.969,3.415v0.899h-9.278v-0.899
		c3.102-0.379,2.969-0.206,2.969-3.415v-15.521c0-3.208,0.133-3.035-2.969-3.415v-0.898h9.278v0.898
		c-3.102,0.379-2.969,0.207-2.969,3.415V236.907z"/>
	<path fill="#005747" d="M757.894,231.909l-3.653-11.216h-0.074l-4.1,11.216H757.894z M749.547,233.219l-1.59,4.62
		c-0.446,1.345,0.206,2.483,1.729,2.483v0.899h-6.283v-0.899c0.932,0,1.931-0.586,2.482-1.724
		c1.484-3.035,5.524-14.317,8.387-21.938h1.931c2.35,6.937,5.863,17.56,7.042,20.627c0.758,1.937,1.304,3.035,2.789,3.035v0.899H758
		v-0.899c2.17,0,2.375-1.138,1.824-2.656l-1.479-4.447H749.547z"/>
</g>
<g>
	<path fill="#005747" d="M154.977,278.408c2.933,0,4.721,2.111,4.604,5.841c-0.146,3.194-1.436,7.441-4.076,10.291
		c-1.818,1.929-3.459,2.34-4.897,2.34c-3.868,0-4.986-2.878-4.895-5.624c0.174-5.102,2.756-9.299,4.866-11.089
		C151.606,279.288,153.102,278.408,154.977,278.408z M155.094,277.496c-2.375,0-4.837,0.706-7.153,2.671
		c-3.109,2.644-4.574,6.364-4.69,9.971c-0.089,3.751,2.169,7.653,7.155,7.653c3.428,0,5.894-1.494,7.68-3.194
		c2.314-2.204,3.813-5.807,3.958-9.06C162.308,280.108,158.936,277.496,155.094,277.496z"/>
	<path fill="#005747" d="M168.264,286.85c-0.176,0.503-0.411,1.439-0.675,2.318c-0.939,3.26-1.786,6.514-2.757,9.743
		c-0.822,2.637-1.701,4.243-2.315,4.801c-0.351,0.354-1.615,1.495-3.344,1.495c-1.348,0-1.904-1.003-1.904-1.495
		c0-0.65,0.351-0.914,0.557-1.062c0.411-0.338,0.616-0.111,0.85,0.273c0.41,0.673,1.172,1.076,1.76,1.076
		c0.527,0,1.232-0.436,1.848-2.43c1.495-4.895,2.461-9.938,3.868-14.72h-2.433c-0.291-0.262-0.174-0.821,0.204-1.084h2.525
		c0.76-2.635,1.524-4.927,3.252-6.981c1.469-1.723,3.199-2.432,4.928-2.432c1.23,0,2.403,0.766,2.403,1.942
		c0,0.913-0.791,1.814-1.259,1.814c-0.265,0-0.383-0.261-0.411-0.467c-0.089-1.758-1.027-2.284-1.791-2.284
		c-0.85,0-1.58,0.583-2.288,1.575c-1.378,1.974-1.963,4.346-2.755,6.833h3.665c0.205,0.319,0.148,0.765-0.294,1.084H168.264z"/>
	<path fill="#005747" d="M175.945,286.85c-0.174,0.503-0.411,1.439-0.674,2.318c-0.938,3.26-1.79,6.514-2.758,9.743
		c-0.819,2.637-1.7,4.243-2.316,4.801c-0.351,0.354-1.611,1.495-3.342,1.495c-1.35,0-1.906-1.004-1.906-1.495
		c0-0.65,0.354-0.914,0.556-1.062c0.415-0.34,0.617-0.111,0.851,0.273c0.413,0.673,1.175,1.076,1.76,1.076
		c0.528,0,1.23-0.436,1.847-2.43c1.499-4.895,2.462-9.938,3.872-14.72h-2.437c-0.293-0.262-0.174-0.821,0.209-1.084h2.519
		c0.763-2.635,1.524-4.927,3.257-6.981c1.466-1.723,3.193-2.432,4.926-2.432c1.23,0,2.403,0.766,2.403,1.942
		c0,0.913-0.792,1.814-1.262,1.814c-0.263,0-0.383-0.261-0.408-0.467c-0.092-1.758-1.027-2.284-1.792-2.284
		c-0.848,0-1.583,0.583-2.284,1.575c-1.378,1.974-1.966,4.346-2.758,6.833h3.664c0.206,0.319,0.148,0.765-0.291,1.084H175.945z"/>
	<path fill="#005747" d="M182.132,287.798c0.146-0.331,0.146-0.559-0.06-0.559s-0.967,0.354-2.434,1.552
		c-0.265-0.034-0.438-0.262-0.381-0.501c1.614-1.849,3.871-2.934,4.837-2.934c0.208,0,0.352,0.183,0.47,0.297
		c0.173,0.172,0.173,0.434-0.175,1.29l-3.49,8.328c-0.117,0.297-0.146,0.639,0.088,0.639c0.497,0,2.052-1.015,3.05-2.167
		c0.293,0.034,0.438,0.24,0.438,0.501c-0.438,0.844-3.459,3.481-5.483,3.481c-0.146,0-0.319-0.079-0.465-0.25
		c-0.18-0.218-0.266-0.48-0.12-0.798L182.132,287.798z M185.881,279.436c0,0.913-0.644,1.849-1.551,1.849
		c-0.764,0-1.055-0.583-1.055-1.118c0-0.65,0.44-1.849,1.582-1.849C185.531,278.318,185.881,278.785,185.881,279.436z"/>
	<path fill="#005747" d="M196.087,287.09c0,1.176-1.144,1.381-1.436,1.381c-0.294,0-0.559-0.182-0.588-0.537
		c-0.117-0.731-0.057-1.609-1.027-1.609c-0.646,0-1.553,0.617-2.462,1.964c-0.968,1.438-1.876,3.812-1.962,6.066
		c-0.06,1.474,0.557,1.908,1.257,1.908c0.969,0,2.055-0.765,3.167-1.793c0.296-0.022,0.471,0.217,0.382,0.503
		c-1.144,1.494-2.99,2.75-4.837,2.75c-1.142,0-2.197-0.845-2.197-3.104c0-1.907,1.141-5.247,3.722-7.563
		c1.229-1.107,2.494-1.701,3.811-1.701C195.383,285.355,196.087,286.177,196.087,287.09z"/>
	<path fill="#005747" d="M202.976,278.318c-1.145,0-1.583,1.199-1.583,1.849c0,0.535,0.293,1.118,1.056,1.118
		c0.909,0,1.554-0.937,1.554-1.849C204.003,278.785,203.652,278.318,202.976,278.318z M196.526,296.675
		c-0.145,0.318-0.061,0.58,0.118,0.798c0.148,0.172,0.322,0.25,0.467,0.25c2.027,0,5.046-2.637,5.483-3.481
		c0-0.262-0.145-0.467-0.437-0.501c-0.998,1.152-2.552,2.167-3.048,2.167c-0.236,0-0.206-0.342-0.089-0.639l3.488-8.328
		c0.351-0.856,0.351-1.118,0.177-1.29c-0.117-0.114-0.266-0.297-0.47-0.297c-0.968,0-3.223,1.085-4.838,2.934
		c-0.06,0.24,0.117,0.468,0.379,0.501c1.466-1.197,2.23-1.552,2.436-1.552c0.203,0,0.203,0.228,0.057,0.559L196.526,296.675z"/>
	<path fill="#005747" d="M211.949,286.884c0.762,0,1.261,0.491,1.467,1.05c-0.471,1.735-1.7,4.257-3.928,6.332
		c-1.674,1.529-2.553,1.917-2.847,1.917c-0.263,0-0.439-0.217-0.439-0.559c0-2.088,1.789-5.921,3.667-7.598
		C210.776,287.204,211.244,286.884,211.949,286.884z M214.148,286.554c-0.148-0.285-0.467-0.549-0.584-0.605
		c-0.18-0.09-0.382-0.183-0.708-0.183c-0.761,0-1.495,0.206-2.639,0.845c-1.2,0.685-2.461,1.86-3.867,3.79
		c-1.936,2.667-2.581,5.017-2.581,5.69c0,0.822,0.471,1.633,1.288,1.633c1.378,0,4.371-2.021,6.453-4.6l0.087,0.035l-0.969,2.638
		c-0.234,0.672-0.294,0.934-0.294,1.152c0,0.229,0.178,0.776,0.854,0.776c1.612,0,3.695-1.633,4.923-3.275
		c0-0.239-0.203-0.387-0.408-0.387c-1.673,1.472-2.521,1.974-3.021,1.974c-0.236,0-0.382-0.184-0.205-0.673
		c0.939-2.671,3.487-9.15,3.927-10.247c-0.177-0.376-0.938-0.672-1.436-0.434L214.148,286.554z"/>
	<path fill="#005747" d="M219.836,295.417c-0.234,0.673-0.205,0.959,0.118,0.959c0.643,0,2.023-1.438,3.37-2.955
		c0.294-0.024,0.471,0.114,0.471,0.411c-0.765,1.459-2.611,3.891-5.045,3.891c-0.876,0-1.142-0.398-1.142-0.868
		c0-0.479,0.146-1.004,0.645-2.5l4.66-13.86c0.706-2.053,0.412-2.351-0.027-2.555l-0.528-0.241c-0.146-0.113-0.146-0.376,0-0.457
		c0.528-0.215,2.345-0.765,3.693-0.891l0.146,0.184c-0.38,1.051-0.674,1.871-1.728,5.033L219.836,295.417z"/>
	<path fill="#005747" d="M239.597,286.884c0.762,0,1.26,0.491,1.465,1.05c-0.467,1.735-1.699,4.257-3.93,6.332
		c-1.667,1.529-2.549,1.917-2.841,1.917c-0.265,0-0.442-0.217-0.442-0.559c0-2.088,1.789-5.922,3.665-7.598
		C238.424,287.204,238.892,286.884,239.597,286.884z M241.795,286.554c-0.146-0.285-0.471-0.549-0.587-0.605
		c-0.177-0.09-0.38-0.183-0.704-0.183c-0.761,0-1.492,0.206-2.64,0.845c-1.201,0.685-2.46,1.86-3.867,3.79
		c-1.934,2.667-2.583,5.017-2.583,5.69c0,0.822,0.468,1.633,1.292,1.633c1.375,0,4.367-2.021,6.45-4.6l0.088,0.035l-0.97,2.638
		c-0.235,0.672-0.292,0.934-0.292,1.152c0,0.229,0.175,0.776,0.848,0.776c1.615,0,3.696-1.633,4.929-3.275
		c0-0.239-0.206-0.387-0.411-0.387c-1.672,1.472-2.522,1.974-3.019,1.974c-0.235,0-0.38-0.184-0.206-0.673
		c0.938-2.671,3.491-9.15,3.927-10.247c-0.174-0.376-0.936-0.672-1.435-0.434L241.795,286.554z"/>
	<path fill="#005747" d="M250.094,288.14l-1.261,3.697h0.146c0.881-1.644,2.315-3.982,3.077-4.953
		c0.676-0.879,1.409-1.529,2.142-1.529c1.024,0,1.173,1.005,1.173,1.439c0,0.445-0.263,1.289-0.614,1.757
		c-0.354,0.445-0.822,0.468-0.939-0.138c-0.148-0.765-0.325-1.152-0.616-1.152c-0.265,0-0.587,0.298-1.027,0.879
		c-1.787,2.294-3.43,5.862-4.985,9.24c-0.116,0.23-0.266,0.343-0.5,0.343c-0.319,0-1.171-0.113-0.965-0.754
		c0.381-1.173,2.227-6.363,3.02-9.24c0.088-0.32,0.028-0.605-0.234-0.605c-0.765,0-1.555,0.811-2.082,1.519
		c-0.294,0.057-0.5-0.114-0.468-0.469c0.938-1.585,2.051-2.819,3.458-2.819C250.884,285.355,250.356,287.353,250.094,288.14z"/>
	<path fill="#005747" d="M264.694,286.36c0.528,0,1.027,0.251,1.027,1.049c0,1.679-2.171,5.396-3.989,7.45
		c-1.263,1.404-2.375,1.963-2.815,1.963c-0.499,0-1.026-0.389-1.026-1.531c0-1.345,0.91-3.751,2.759-5.862
		C262.466,287.353,263.9,286.36,264.694,286.36z M262.668,280.429c0.443-1.143,0.882-2.25,1.498-3.893l-0.117-0.184
		c-1.35-0.021-2.96,0.356-3.516,0.559c-0.12,0.117-0.149,0.298-0.091,0.413l0.676,0.469c0.41,0.261,0.321,0.798-0.293,2.442
		l-3.401,9.023c-0.851,2.283-1.494,4.39-1.494,5.773c0,1.677,0.76,2.692,2.344,2.692c1.024,0,3.194-0.525,5.599-2.83
		c2.377-2.328,3.782-4.871,3.782-6.901c0-1.496-0.791-2.637-2.521-2.637c-2.199,0-4.162,1.998-6.216,5.103h-0.06L262.668,280.429z"
		/>
	<path fill="#005747" d="M276.013,286.235c1.026,0,1.199,1.026,1.17,1.939c-0.06,1.553-1.433,5.419-2.726,7.153
		c-0.938,1.255-1.671,1.528-2.316,1.528c-0.848,0-1.259-0.854-1.202-1.882c0.089-1.552,1.231-5.041,2.931-7.325
		C274.723,286.497,275.425,286.235,276.013,286.235z M276.216,285.355c-1.202,0-2.52,0.445-4.046,1.906
		c-1.993,1.907-3.08,4.76-3.197,6.572c-0.173,2.522,1.059,3.891,2.935,3.891c0.791,0,2.377-0.138,4.194-2.021
		c2.167-2.225,3.018-5.041,3.106-6.65C279.324,286.908,278.296,285.355,276.216,285.355z"/>
	<path fill="#005747" d="M285.744,288.14l-1.261,3.697h0.149c0.878-1.644,2.315-3.982,3.077-4.953
		c0.673-0.879,1.409-1.529,2.139-1.529c1.028,0,1.174,1.005,1.174,1.439c0,0.445-0.263,1.289-0.614,1.757
		c-0.351,0.445-0.821,0.468-0.938-0.138c-0.148-0.765-0.322-1.152-0.613-1.152c-0.266,0-0.591,0.298-1.028,0.879
		c-1.79,2.294-3.431,5.862-4.985,9.24c-0.117,0.23-0.266,0.343-0.5,0.343c-0.322,0-1.174-0.113-0.966-0.754
		c0.381-1.173,2.227-6.363,3.02-9.24c0.085-0.32,0.029-0.605-0.234-0.605c-0.765,0-1.558,0.811-2.085,1.519
		c-0.292,0.057-0.496-0.114-0.467-0.469c0.937-1.585,2.05-2.819,3.46-2.819C286.538,285.355,286.01,287.353,285.744,288.14z"/>
	<path fill="#005747" d="M297.566,286.27c0.528,0,0.676,0.375,0.676,0.672c0,0.262-0.237,1.141-1.143,1.997
		c-1.084,1.028-1.994,1.576-3.931,2.169c0.354-0.855,1.027-2.204,2.171-3.435C296.395,286.531,297.155,286.27,297.566,286.27z
		 M298.154,285.355c-0.85,0-1.993,0.239-3.519,1.406c-3.194,2.464-4.367,6.044-4.367,7.893c0,1.437,0.617,3.07,2.372,3.07
		c1.233,0,2.905-0.469,4.692-2.659c0.06-0.264-0.118-0.502-0.378-0.502c-1.293,1.119-2.026,1.701-3.082,1.701
		c-0.794,0-1.407-0.674-1.407-1.668c0-1.173,0.203-2.11,0.411-2.609c4.223-1.174,7.123-2.648,7.123-4.862
		C300,286.36,299.326,285.355,298.154,285.355z"/>
	<path fill="#005747" d="M305.837,287.17l-2.643,7.724c-0.173,0.549-0.026,0.73,0.209,0.73c0.436,0,2.373-1.529,3.34-2.648
		c0.298,0,0.472,0.183,0.415,0.538c-1.644,2.431-4.403,4.21-5.631,4.21c-0.412,0-0.791-0.434-0.791-0.776
		c0-0.388,0.117-0.798,0.409-1.678l2.757-8.1h-2.29c-0.058-0.286,0.031-0.696,0.326-0.81l2.343-0.411l1.644-2.911
		c0.292-0.17,0.878-0.113,1.116,0.172l-0.854,2.875h3.197c0.206,0.297,0.029,0.89-0.352,1.084H305.837z"/>
	<path fill="#005747" d="M311.878,294.801c-0.266,0.698-0.117,0.995,0.202,0.995c0.438,0,1.611-0.937,3.137-2.432
		c2.668-2.645,4.192-6.045,5.16-7.827c0.616-0.125,1.321,0.173,1.438,0.525c-0.293,0.787-2.199,5.602-3.432,9.082
		c-0.146,0.388-0.175,0.741,0.117,0.741c0.559,0,2.114-1.38,2.876-2.293c0.265-0.058,0.499,0.055,0.527,0.409
		c-0.764,1.416-3.578,3.722-5.131,3.722c-0.47,0-0.91-0.547-0.733-1.015l1.994-5.362l-0.058-0.034
		c-2.112,2.668-5.747,6.411-7.33,6.411c-1.205,0-1.35-1.199-0.851-2.488l2.696-7.118c0.207-0.558,0.232-0.856,0-0.856
		c-0.556,0-2.083,1.29-2.784,2.031c-0.294,0.045-0.528-0.182-0.5-0.442c0.762-1.177,3.693-3.495,5.074-3.495
		c0.38,0,1.056,0.39,0.879,0.88L311.878,294.801z"/>
	<path fill="#005747" d="M335.271,289.168l-1.116,2.704l0.089,0.058c2.816-4.486,5.045-6.575,6.979-6.575
		c1.116,0,1.645,0.617,1.645,1.587c0,0.467-0.208,1.381-0.472,2.054c-0.528,1.462-2.64,6.239-2.727,6.48
		c-0.117,0.285-0.149,0.559,0.06,0.559c0.5,0,1.903-0.97,2.756-1.998c0.411-0.056,0.468,0.172,0.468,0.411
		c-1.112,1.873-3.432,3.275-5.043,3.275c-0.262,0-0.702-0.377-0.702-0.73c0-0.263,0.086-0.469,0.702-1.928
		c0.617-1.438,1.791-4.277,2.376-5.773c0.205-0.535,0.615-1.563,0.615-2.145c0-0.354-0.027-0.707-0.47-0.707
		c-0.851,0-2.257,1.494-3.839,3.526c-1.495,1.871-2.816,4.186-4.603,7.414c-0.146,0.23-0.263,0.343-0.528,0.343
		c-0.323,0-1.115-0.079-0.85-0.754l2.899-7.677c0.117-0.33,1.292-2.852,0.237-2.852c-0.821,0-2.464,1.528-4.076,3.526
		c-1.523,1.906-2.697,4.186-4.395,7.414c-0.149,0.265-0.266,0.343-0.531,0.343c-0.323,0-1.116-0.079-0.853-0.754
		c0.091-0.239,3.229-8.795,3.346-9.24c0.146-0.49,0.117-0.821-0.206-0.821c-0.967,0-1.994,0.89-2.582,1.621
		c-0.293,0-0.439-0.206-0.411-0.446c0.733-1.403,2.289-2.728,4.519-2.728c0.672,0,0.966,0.525,0.701,1.199l-2.021,5.318l0.086,0.058
		c2.11-3.458,4.869-6.575,7.096-6.575C336.533,285.355,335.855,287.672,335.271,289.168z"/>
	<path fill="#005747" d="M359.256,286.235c1.024,0,1.201,1.026,1.173,1.939c-0.06,1.553-1.438,5.419-2.727,7.153
		c-0.938,1.255-1.671,1.528-2.319,1.528c-0.847,0-1.258-0.854-1.201-1.882c0.091-1.552,1.232-5.041,2.933-7.325
		C357.965,286.497,358.668,286.235,359.256,286.235z M359.461,285.355c-1.203,0-2.524,0.445-4.047,1.906
		c-1.994,1.907-3.078,4.76-3.194,6.572c-0.177,2.522,1.053,3.891,2.928,3.891c0.793,0,2.377-0.138,4.193-2.021
		c2.171-2.225,3.021-5.041,3.109-6.65C362.571,286.908,361.544,285.355,359.461,285.355z"/>
	<path fill="#005747" d="M369.516,286.85c-0.173,0.503-0.407,1.439-0.672,2.318c-0.939,3.26-1.789,6.514-2.756,9.743
		c-0.821,2.636-1.7,4.243-2.317,4.801c-0.352,0.354-1.61,1.495-3.342,1.495c-1.35,0-1.907-1.004-1.907-1.495
		c0-0.65,0.352-0.914,0.558-1.062c0.411-0.34,0.616-0.111,0.851,0.273c0.41,0.673,1.172,1.076,1.757,1.076
		c0.53,0,1.234-0.436,1.849-2.43c1.497-4.895,2.463-9.938,3.87-14.72h-2.434c-0.294-0.262-0.173-0.821,0.206-1.084h2.522
		c0.766-2.635,1.525-4.927,3.255-6.981c1.466-1.723,3.194-2.432,4.926-2.432c1.232,0,2.405,0.766,2.405,1.942
		c0,0.913-0.791,1.814-1.261,1.814c-0.263,0-0.382-0.261-0.411-0.467c-0.088-1.758-1.027-2.284-1.789-2.284
		c-0.851,0-1.582,0.583-2.287,1.575c-1.377,1.974-1.963,4.346-2.756,6.833h3.667c0.205,0.319,0.146,0.765-0.292,1.084H369.516z"/>
	<path fill="#005747" d="M384.499,287.17l-2.638,7.724c-0.174,0.549-0.029,0.73,0.206,0.73c0.439,0,2.376-1.529,3.342-2.648
		c0.292,0,0.472,0.183,0.412,0.538c-1.642,2.431-4.398,4.21-5.634,4.21c-0.407,0-0.79-0.434-0.79-0.776
		c0-0.388,0.12-0.798,0.411-1.678l2.756-8.1h-2.286c-0.06-0.286,0.028-0.696,0.323-0.81l2.345-0.411l1.642-2.911
		c0.294-0.17,0.879-0.113,1.113,0.172l-0.848,2.875h3.195c0.206,0.297,0.029,0.89-0.354,1.084H384.499z"/>
	<path fill="#005747" d="M392.711,280.496c0.645-1.938,0.791-2.351,0.319-2.669l-0.615-0.411c-0.057-0.148-0.057-0.262,0.087-0.387
		c0.472-0.206,2.405-0.618,3.432-0.676l0.117,0.184c-0.585,1.643-1.523,4.302-2.11,5.978l-3.022,8.799v-0.034l0.06,0.068
		c2.051-2.91,3.576-4.085,4.632-4.85c1.056-0.752,1.994-1.142,2.785-1.142c1.291,0,1.759,0.947,1.759,1.964
		c0,2.019-1.261,4.988-2.287,6.856c-0.585,1.004-1.144,1.655-1.906,2.407c-0.967,0.97-1.758,1.142-2.137,1.142
		c-0.968,0-1.085-0.616-1.085-0.845c0-0.502,0.411-0.935,0.79-0.935c0.12,0,0.266,0.058,0.412,0.171
		c0.237,0.182,0.555,0.387,0.76,0.387c0.439,0,0.732-0.445,1.173-1.471c0.793-1.908,2.114-5.943,2.114-7.564
		c0-0.559-0.208-0.878-0.616-0.878c-0.411,0-1.028,0.354-1.583,0.787c-1.233,0.948-2.202,1.917-3.726,3.903
		c-1.317,1.754-2.782,4.607-3.544,6.102c-0.12,0.23-0.265,0.343-0.527,0.343c-0.326,0-1.119-0.079-0.854-0.754L392.711,280.496z"/>
	<path fill="#005747" d="M411.153,287.124c0,2.214-2.905,3.688-7.127,4.862c-0.205,0.5-0.408,1.436-0.408,2.609
		c0,0.994,0.614,1.668,1.405,1.668c1.054,0,1.786-0.582,3.078-1.701c0.267,0,0.443,0.238,0.383,0.502
		c-1.792,2.19-3.461,2.659-4.691,2.659c-1.761,0-2.377-1.633-2.377-3.07c0-1.849,1.175-5.429,4.367-7.893
		c1.526-1.167,2.67-1.406,3.52-1.406C410.475,285.355,411.153,286.36,411.153,287.124z M406.49,287.672
		c-1.145,1.231-1.819,2.58-2.17,3.435c1.937-0.593,2.843-1.141,3.928-2.169c0.91-0.856,1.145-1.735,1.145-1.997
		c0-0.297-0.148-0.672-0.675-0.672C408.311,286.27,407.546,286.531,406.49,287.672z"/>
	<path fill="#005747" d="M439.506,278.442c-0.468,1.142-1.062,2.843-1.324,3.924c-0.113,0.238-0.703,0.204-0.787-0.034
		c0.553-2.543-0.184-3.925-3.193-3.925c-2.088,0-4.815,0.652-7.515,3.289c-1.467,1.457-3.455,4.892-3.455,8.762
		c0,4.161,1.963,6.421,5.688,6.421c3.047,0,4.896-1.792,6.305-4.108c0.288-0.114,0.612-0.059,0.698,0.205
		c-0.263,0.8-0.897,2.352-1.902,4.132c-0.64,0-1.438,0.183-2.317,0.331c-0.851,0.148-1.814,0.354-2.842,0.354
		c-3.808,0-8.208-1.735-8.208-7.883c0-3.412,1.786-6.665,4.194-8.83c2.457-2.227,6.005-3.583,9.853-3.583
		C436.983,277.496,438.769,278.145,439.506,278.442z"/>
	<path fill="#005747" d="M445.046,286.235c1.019,0,1.201,1.026,1.167,1.939c-0.056,1.553-1.435,5.419-2.725,7.153
		c-0.937,1.255-1.667,1.528-2.315,1.528c-0.845,0-1.262-0.854-1.2-1.882c0.086-1.552,1.233-5.041,2.933-7.325
		C443.756,286.497,444.459,286.235,445.046,286.235z M445.252,285.355c-1.204,0-2.521,0.445-4.046,1.906
		c-1.996,1.907-3.081,4.76-3.196,6.572c-0.182,2.522,1.051,3.891,2.934,3.891c0.789,0,2.373-0.138,4.188-2.021
		c2.171-2.225,3.021-5.041,3.107-6.65C448.359,286.908,447.331,285.355,445.252,285.355z"/>
	<path fill="#005747" d="M461.754,289.168l-1.107,2.704l0.08,0.058c2.819-4.486,5.044-6.575,6.981-6.575
		c1.114,0,1.644,0.617,1.644,1.587c0,0.467-0.207,1.381-0.468,2.054c-0.526,1.462-2.647,6.239-2.724,6.48
		c-0.121,0.285-0.148,0.559,0.054,0.559c0.496,0,1.905-0.97,2.755-1.998c0.411-0.056,0.468,0.172,0.468,0.41
		c-1.111,1.874-3.425,3.276-5.041,3.276c-0.264,0-0.701-0.377-0.701-0.73c0-0.263,0.086-0.469,0.701-1.928
		c0.622-1.439,1.791-4.277,2.378-5.773c0.204-0.535,0.609-1.563,0.609-2.145c0-0.354-0.028-0.707-0.462-0.707
		c-0.854,0-2.257,1.494-3.843,3.526c-1.495,1.871-2.819,4.186-4.611,7.414c-0.143,0.23-0.262,0.343-0.525,0.343
		c-0.319,0-1.112-0.079-0.844-0.754l2.898-7.677c0.114-0.33,1.29-2.852,0.233-2.852c-0.815,0-2.459,1.528-4.072,3.526
		c-1.521,1.906-2.697,4.186-4.398,7.414c-0.147,0.265-0.261,0.343-0.53,0.343c-0.325,0-1.112-0.079-0.849-0.754
		c0.09-0.239,3.229-8.795,3.342-9.24c0.149-0.49,0.116-0.821-0.205-0.821c-0.969,0-1.991,0.89-2.578,1.621
		c-0.291,0-0.439-0.206-0.411-0.446c0.73-1.403,2.288-2.728,4.519-2.728c0.674,0,0.961,0.525,0.702,1.199l-2.026,5.318l0.092,0.058
		c2.112-3.458,4.858-6.575,7.097-6.575C463.014,285.355,462.342,287.672,461.754,289.168z"/>
	<path fill="#005747" d="M483.157,289.168l-1.111,2.704l0.091,0.058c2.812-4.486,5.035-6.575,6.976-6.575
		c1.118,0,1.644,0.617,1.644,1.587c0,0.467-0.206,1.381-0.474,2.054c-0.525,1.462-2.636,6.239-2.729,6.48
		c-0.12,0.285-0.142,0.559,0.063,0.559c0.496,0,1.906-0.97,2.756-1.998c0.411-0.056,0.463,0.172,0.463,0.41
		c-1.108,1.874-3.424,3.276-5.031,3.276c-0.267,0-0.707-0.377-0.707-0.73c0-0.263,0.092-0.469,0.707-1.928
		c0.611-1.439,1.778-4.277,2.371-5.773c0.2-0.535,0.611-1.563,0.611-2.145c0-0.354-0.029-0.707-0.469-0.707
		c-0.85,0-2.256,1.494-3.836,3.526c-1.495,1.871-2.82,4.186-4.604,7.414c-0.149,0.23-0.27,0.343-0.531,0.343
		c-0.319,0-1.118-0.079-0.851-0.754l2.905-7.677c0.119-0.33,1.288-2.852,0.239-2.852c-0.822,0-2.472,1.528-4.087,3.526
		c-1.515,1.906-2.69,4.186-4.39,7.414c-0.149,0.265-0.263,0.343-0.525,0.343c-0.325,0-1.119-0.079-0.856-0.754
		c0.092-0.239,3.23-8.795,3.345-9.24c0.147-0.49,0.119-0.821-0.206-0.821c-0.964,0-1.992,0.89-2.579,1.621
		c-0.298,0-0.434-0.206-0.411-0.446c0.73-1.403,2.288-2.728,4.517-2.728c0.673,0,0.97,0.525,0.701,1.199l-2.021,5.318l0.09,0.058
		c2.109-3.458,4.865-6.575,7.097-6.575C484.425,285.355,483.752,287.672,483.157,289.168z"/>
	<path fill="#005747" d="M499.779,286.235c1.027,0,1.211,1.026,1.176,1.939c-0.058,1.553-1.437,5.419-2.728,7.153
		c-0.937,1.255-1.67,1.528-2.314,1.528c-0.849,0-1.26-0.854-1.197-1.882c0.086-1.552,1.228-5.041,2.93-7.325
		C498.49,286.497,499.198,286.235,499.779,286.235z M499.986,285.355c-1.199,0-2.517,0.445-4.043,1.906
		c-1.993,1.907-3.077,4.76-3.19,6.572c-0.183,2.522,1.05,3.891,2.921,3.891c0.799,0,2.377-0.138,4.197-2.021
		c2.168-2.225,3.019-5.041,3.11-6.65C503.101,286.908,502.073,285.355,499.986,285.355z"/>
	<path fill="#005747" d="M508.491,291.69l0.085,0.056c2.083-3.162,4.986-6.391,7.188-6.391c1.143,0,1.645,0.617,1.645,1.587
		c0,0.467-0.239,1.381-0.474,2.054c-0.525,1.462-2.637,6.239-2.729,6.48c-0.118,0.285-0.142,0.559,0.064,0.559
		c0.495,0,1.898-0.97,2.756-1.998c0.404-0.056,0.459,0.172,0.459,0.41c-1.104,1.874-3.421,3.276-5.029,3.276
		c-0.273,0-0.709-0.377-0.709-0.73c0-0.263,0.079-0.469,0.709-1.928c0.604-1.439,1.695-4.311,2.368-5.773
		c0.238-0.535,0.615-1.563,0.615-2.145c0-0.354-0.029-0.707-0.469-0.707c-0.7,0-2.435,1.473-4.044,3.492
		c-1.558,1.939-2.762,4.22-4.488,7.448c-0.143,0.265-0.269,0.343-0.524,0.343c-0.326,0-1.114-0.079-0.851-0.754
		c0.147-0.387,3.249-8.829,3.397-9.24c0.147-0.376,0.147-0.673-0.092-0.673c-0.673,0-1.696,0.617-2.667,1.473
		c-0.228,0-0.377-0.206-0.343-0.446c1.107-1.528,2.896-2.728,4.357-2.728c0.706,0,1.032,0.525,0.765,1.199L508.491,291.69z"/>
	<path fill="#005747" d="M523.062,288.14c0.268-0.673,0.325-1.084-0.086-1.084c-0.582,0-1.82,0.993-2.699,2.055
		c-0.263,0-0.468-0.261-0.439-0.501c0.912-1.313,2.819-3.254,4.634-3.254c0.674,0,1.29,0.857,0.878,1.94l-2.315,6.126
		c-0.411,1.049-0.559,1.665-0.559,2.077c0,0.352,0.147,0.706,0.649,0.706c1.313,0,3.571-2.897,4.596-4.459
		c1.146-1.723,1.764-3.981,1.911-4.69c0.206-0.97,0.852-1.584,1.375-1.584c0.71,0,0.886,0.558,0.886,0.831
		c0,0.605-0.326,1.165-1.032,2.636c-1.051,2.169-1.575,4.392-1.575,5.978c0,0.88,0.377,1.289,1.077,1.289
		c0.885,0,2.438-1.083,3.642-2.807c1.141-1.652,1.815-3.432,1.815-4.904c0-0.696-0.058-1.404-0.258-2.077
		c0.057-0.617,0.525-1.062,1.078-1.062c0.942,0,1.148,1.086,1.148,1.815c0,1.644-0.937,4.256-3.197,6.982
		c-2.109,2.556-4.433,3.571-5.602,3.571c-0.617,0-1.643-0.754-1.643-1.667c0-0.787,0.263-1.734,0.5-2.487
		c0.137-0.467-0.058-0.446-0.414,0.024c-1.376,1.883-3.817,4.13-5.568,4.13c-0.828,0-1.501-0.868-1.501-1.574
		c0-0.56,0.211-1.324,0.502-2.147L523.062,288.14z"/>
	<path fill="#005747" d="M547.986,287.124c0,2.214-2.898,3.688-7.127,4.862c-0.2,0.5-0.406,1.436-0.406,2.609
		c0,0.994,0.617,1.668,1.404,1.668c1.056,0,1.793-0.583,3.082-1.702c0.262,0,0.434,0.24,0.382,0.504
		c-1.791,2.19-3.464,2.659-4.696,2.659c-1.756,0-2.374-1.633-2.374-3.07c0-1.849,1.176-5.429,4.37-7.895
		c1.53-1.165,2.671-1.404,3.516-1.404C547.312,285.354,547.986,286.36,547.986,287.124z M543.319,287.672
		c-1.143,1.231-1.815,2.58-2.169,3.435c1.94-0.593,2.854-1.141,3.938-2.169c0.906-0.856,1.14-1.735,1.14-1.997
		c0-0.297-0.148-0.672-0.672-0.672C545.144,286.27,544.379,286.531,543.319,287.672z"/>
	<path fill="#005747" d="M555.904,286.884c0.765,0,1.26,0.491,1.472,1.05c-0.474,1.735-1.706,4.257-3.938,6.332
		c-1.667,1.529-2.546,1.917-2.841,1.917c-0.264,0-0.44-0.217-0.44-0.559c0-2.088,1.785-5.922,3.668-7.598
		C554.729,287.204,555.195,286.884,555.904,286.884z M558.105,286.554c-0.148-0.285-0.473-0.549-0.592-0.605
		c-0.172-0.09-0.378-0.183-0.704-0.183c-0.759,0-1.488,0.206-2.635,0.845c-1.204,0.685-2.46,1.86-3.876,3.79
		c-1.935,2.667-2.576,5.017-2.576,5.69c0,0.822,0.467,1.633,1.287,1.633c1.381,0,4.371-2.021,6.455-4.6l0.083,0.035l-0.958,2.638
		c-0.239,0.672-0.296,0.934-0.296,1.152c0,0.229,0.172,0.776,0.851,0.776c1.614,0,3.689-1.633,4.92-3.276
		c0-0.238-0.205-0.388-0.409-0.388c-1.675,1.473-2.52,1.976-3.017,1.976c-0.233,0-0.381-0.184-0.205-0.674
		c0.942-2.67,3.484-9.149,3.924-10.246c-0.178-0.376-0.931-0.673-1.433-0.434L558.105,286.554z"/>
	<path fill="#005747" d="M563.786,295.417c-0.229,0.673-0.205,0.959,0.12,0.959c0.644,0,2.025-1.438,3.373-2.955
		c0.295-0.023,0.473,0.114,0.473,0.41c-0.765,1.46-2.613,3.892-5.045,3.892c-0.884,0-1.146-0.398-1.146-0.868
		c0-0.479,0.147-1.004,0.639-2.5l4.669-13.86c0.706-2.053,0.411-2.351-0.028-2.555l-0.531-0.241c-0.144-0.113-0.144-0.376,0-0.457
		c0.531-0.215,2.351-0.765,3.694-0.891l0.148,0.184c-0.375,1.051-0.673,1.871-1.731,5.033L563.786,295.417z"/>
	<path fill="#005747" d="M574.112,287.17l-2.644,7.724c-0.176,0.546-0.027,0.73,0.206,0.73c0.439,0,2.379-1.529,3.345-2.648
		c0.297,0,0.472,0.183,0.417,0.535c-1.649,2.433-4.406,4.213-5.639,4.213c-0.411,0-0.787-0.435-0.787-0.776
		c0-0.388,0.114-0.798,0.405-1.678l2.756-8.1h-2.282c-0.058-0.286,0.033-0.696,0.319-0.81l2.351-0.411l1.637-2.911
		c0.291-0.17,0.881-0.113,1.12,0.172l-0.857,2.875h3.202c0.205,0.297,0.022,0.89-0.354,1.084H574.112z"/>
	<path fill="#005747" d="M582.319,280.496c0.645-1.938,0.794-2.351,0.325-2.669l-0.621-0.411c-0.058-0.148-0.058-0.263,0.092-0.387
		c0.467-0.206,2.402-0.618,3.429-0.676l0.12,0.184c-0.588,1.643-1.524,4.302-2.111,5.978l-3.024,8.799v-0.034l0.062,0.068
		c2.055-2.91,3.571-4.085,4.635-4.85c1.05-0.752,1.997-1.142,2.785-1.142c1.286,0,1.754,0.948,1.754,1.964
		c0,2.019-1.259,4.987-2.28,6.856c-0.592,1.004-1.146,1.655-1.911,2.407c-0.965,0.97-1.752,1.142-2.14,1.142
		c-0.97,0-1.084-0.617-1.084-0.845c0-0.502,0.41-0.935,0.787-0.935c0.126,0,0.268,0.058,0.417,0.171
		c0.233,0.182,0.554,0.387,0.758,0.387c0.44,0,0.735-0.445,1.177-1.471c0.787-1.908,2.111-5.943,2.111-7.564
		c0-0.559-0.206-0.879-0.618-0.879c-0.408,0-1.025,0.354-1.584,0.788c-1.235,0.948-2.191,1.917-3.722,3.903
		c-1.324,1.754-2.781,4.607-3.546,6.102c-0.12,0.228-0.263,0.343-0.525,0.343c-0.325,0-1.117-0.079-0.855-0.754L582.319,280.496z"/>
	<path fill="#005747" d="M605.509,286.233c1.028,0,1.204,1.028,1.177,1.94c-0.058,1.553-1.438,5.418-2.729,7.153
		c-0.936,1.255-1.671,1.528-2.315,1.528c-0.856,0-1.262-0.854-1.204-1.882c0.091-1.552,1.232-5.042,2.938-7.325
		C604.219,286.497,604.929,286.233,605.509,286.233z M605.716,285.354c-1.198,0-2.522,0.445-4.046,1.907
		c-1.992,1.907-3.073,4.76-3.194,6.57c-0.175,2.523,1.054,3.892,2.927,3.892c0.793,0,2.379-0.138,4.198-2.021
		c2.169-2.225,3.02-5.041,3.104-6.65C608.825,286.908,607.798,285.354,605.716,285.354z"/>
	<path fill="#005747" d="M615.772,286.85c-0.177,0.503-0.417,1.438-0.673,2.318c-0.942,3.26-1.794,6.512-2.757,9.743
		c-0.821,2.636-1.706,4.243-2.315,4.801c-0.354,0.354-1.606,1.494-3.342,1.494c-1.346,0-1.905-1.005-1.905-1.494
		c0-0.65,0.347-0.914,0.56-1.062c0.404-0.34,0.608-0.111,0.845,0.273c0.409,0.673,1.175,1.073,1.762,1.073
		c0.525,0,1.227-0.434,1.84-2.427c1.496-4.895,2.466-9.938,3.874-14.72h-2.436c-0.292-0.262-0.172-0.821,0.205-1.084h2.522
		c0.765-2.635,1.523-4.927,3.259-6.981c1.467-1.723,3.192-2.432,4.921-2.432c1.232,0,2.408,0.766,2.408,1.942
		c0,0.913-0.787,1.814-1.262,1.814c-0.268,0-0.382-0.262-0.411-0.467c-0.084-1.758-1.026-2.285-1.79-2.285
		c-0.851,0-1.579,0.584-2.286,1.576c-1.381,1.974-1.962,4.346-2.751,6.833h3.663c0.203,0.32,0.149,0.765-0.29,1.084H615.772z"/>
	<path fill="#005747" d="M629.613,278.933c-0.211-0.171-0.119-0.525,0.085-0.695c1.264-0.207,2.993-0.354,4.928-0.354
		c2.904,0,4.748,0.559,5.805,1.438c1.17,0.993,1.609,2.227,1.609,3.626c0,1.976-1.083,3.492-2.484,4.497
		c-1.499,1.028-3.754,1.495-5.433,1.495c-0.234-0.09-0.262-0.411-0.085-0.615c2.174-0.274,5.546-1.849,5.546-5.843
		c0-2.542-1.649-3.695-3.965-3.695c-0.937,0-0.993,0.126-1.291,1.026l-4.131,13.291c-0.854,2.728-0.933,3.366,0.56,3.48l1.05,0.093
		c0.183,0.204,0.092,0.614-0.113,0.729c-1.41-0.058-2.429-0.079-3.844-0.079c-1.198,0-2.19,0.021-3.367,0.079
		c-0.234-0.149-0.234-0.549-0.034-0.729l0.913-0.093c1.403-0.148,1.701-0.491,2.637-3.48l3.781-12.138
		c0.438-1.415,0.325-1.792-0.76-1.905L629.613,278.933z"/>
	<path fill="#005747" d="M647.645,286.27c0.525,0,0.673,0.375,0.673,0.672c0,0.262-0.234,1.141-1.142,1.997
		c-1.083,1.028-1.996,1.576-3.925,2.167c0.343-0.855,1.021-2.202,2.168-3.434C646.469,286.531,647.233,286.27,647.645,286.27z
		 M648.226,285.354c-0.845,0-1.99,0.24-3.514,1.404c-3.196,2.466-4.368,6.046-4.368,7.895c0,1.437,0.613,3.07,2.371,3.07
		c1.232,0,2.909-0.469,4.69-2.659c0.068-0.264-0.114-0.504-0.377-0.504c-1.29,1.119-2.025,1.702-3.081,1.702
		c-0.789,0-1.404-0.674-1.404-1.668c0-1.174,0.2-2.11,0.411-2.609c4.222-1.174,7.12-2.648,7.12-4.862
		C650.074,286.359,649.402,285.354,648.226,285.354z"/>
	<path fill="#005747" d="M654.421,291.69l0.079,0.056c2.088-3.162,4.987-6.391,7.187-6.391c1.143,0,1.645,0.617,1.645,1.587
		c0,0.467-0.24,1.381-0.469,2.054c-0.535,1.459-2.644,6.239-2.724,6.48c-0.126,0.284-0.148,0.559,0.058,0.559
		c0.501,0,1.901-0.97,2.746-1.998c0.417-0.057,0.474,0.172,0.474,0.41c-1.112,1.874-3.426,3.276-5.041,3.276
		c-0.268,0-0.702-0.377-0.702-0.73c0-0.263,0.086-0.469,0.702-1.928c0.617-1.439,1.706-4.312,2.38-5.773
		c0.225-0.535,0.612-1.563,0.612-2.145c0-0.354-0.034-0.708-0.476-0.708c-0.695,0-2.425,1.474-4.04,3.493
		c-1.553,1.939-2.763,4.221-4.485,7.449c-0.148,0.264-0.268,0.343-0.536,0.343c-0.319,0-1.107-0.079-0.844-0.754
		c0.147-0.387,3.253-8.829,3.4-9.24c0.146-0.376,0.146-0.673-0.093-0.673c-0.672,0-1.699,0.617-2.663,1.472
		c-0.233,0-0.383-0.204-0.354-0.445c1.113-1.528,2.903-2.728,4.371-2.728c0.701,0,1.021,0.525,0.765,1.2L654.421,291.69z"/>
	<path fill="#005747" d="M669.139,291.69l0.081,0.056c2.085-3.162,4.984-6.391,7.187-6.391c1.142,0,1.643,0.617,1.643,1.587
		c0,0.467-0.238,1.381-0.467,2.054c-0.537,1.459-2.647,6.239-2.728,6.48c-0.114,0.284-0.148,0.559,0.057,0.559
		c0.502,0,1.906-0.97,2.751-1.998c0.417-0.057,0.479,0.172,0.479,0.41c-1.118,1.874-3.436,3.276-5.049,3.276
		c-0.271,0-0.703-0.377-0.703-0.73c0-0.263,0.085-0.469,0.703-1.928c0.614-1.439,1.694-4.312,2.378-5.773
		c0.229-0.535,0.616-1.563,0.616-2.145c0-0.354-0.034-0.708-0.474-0.708c-0.702,0-2.437,1.474-4.046,3.493
		c-1.55,1.939-2.754,4.221-4.481,7.449c-0.148,0.264-0.268,0.343-0.538,0.343c-0.319,0-1.105-0.079-0.843-0.754
		c0.143-0.387,3.254-8.829,3.4-9.24c0.147-0.376,0.147-0.673-0.086-0.673c-0.679,0-1.707,0.617-2.666,1.472
		c-0.238,0-0.386-0.204-0.358-0.445c1.113-1.528,2.904-2.728,4.372-2.728c0.707,0,1.03,0.525,0.759,1.2L669.139,291.69z"/>
	<path fill="#005747" d="M687.017,287.033c0,0.468-0.296,0.787-0.525,0.901c-0.205,0.058-0.382,0-0.559-0.228
		c-0.502-0.503-0.878-0.948-1.791-0.948c-0.851,0-1.197,0.742-1.197,1.176c0,0.617,0.146,1.233,0.991,2.67
		c0.741,1.232,1.176,1.961,1.119,3.251c-0.028,0.798-0.446,1.882-1.524,2.819c-0.764,0.672-1.854,1.049-2.957,1.049
		c-1.114,0-1.794-0.868-1.794-1.541c0-0.297,0.115-0.618,0.439-0.971c0.24-0.205,0.554-0.205,0.794,0
		c0.376,0.434,1.261,1.165,2.017,1.165c0.709,0,1.41-0.731,1.41-1.665c0-0.502-0.349-1.405-1.078-2.576
		c-0.766-1.233-1.029-2.227-1.029-2.728c0-1.142,0.491-1.998,1.759-3.082c0.845-0.731,1.786-0.971,2.17-0.971
		C686.344,285.354,687.017,286.302,687.017,287.033z"/>
	<path fill="#005747" d="M692.766,290.343c0.024,1.872-0.028,4.013-0.444,6.457h0.119c0.971-1.439,1.821-3.264,2.466-5.054
		c0.617-1.699,1.057-4.656,1.084-5.42c0.057-0.854,0.497-0.913,0.701-0.913c0.206,0,0.595,0.125,0.823,0.262
		c0.182,0.125,0.261,0.274,0.261,0.595c0.036,0.73-0.787,4.518-3.4,8.942c-1.461,2.433-2.487,4.371-4.837,7.031
		c-2.168,2.496-3.64,2.963-4.57,2.963c-0.94,0-1.528-0.615-1.528-1.345c0-0.732,0.53-1.268,1.169-1.268
		c0.299,0,0.594,0.183,0.799,0.469c0.087,0.148,0.354,0.535,0.822,0.535c0.376,0,0.907-0.239,1.609-0.821
		c0.735-0.613,2.025-2.462,2.578-4.402c0.411-1.495,0.617-4.199,0.595-6.684c-0.063-3.254-0.559-4.395-1.118-4.395
		c-0.583,0-1.084,0.993-1.701,2.226c-0.319,0.09-0.502-0.114-0.559-0.377c0.615-1.975,1.904-3.79,3.344-3.79
		C692.47,285.354,692.71,288.288,692.766,290.343z"/>
	<path fill="#005747" d="M700.743,295.417c-0.234,0.673-0.205,0.959,0.114,0.959c0.646,0,2.018-1.438,3.371-2.955
		c0.296-0.023,0.472,0.114,0.472,0.41c-0.765,1.46-2.612,3.892-5.041,3.892c-0.88,0-1.153-0.398-1.153-0.868
		c0-0.479,0.15-1.004,0.65-2.5l4.659-13.86c0.709-2.053,0.413-2.351-0.028-2.555l-0.524-0.241c-0.148-0.113-0.148-0.376,0-0.457
		c0.524-0.215,2.34-0.765,3.697-0.891l0.143,0.184c-0.382,1.051-0.679,1.871-1.729,5.033L700.743,295.417z"/>
	<path fill="#005747" d="M709.54,287.913c0.171-0.56,0.171-0.857-0.205-0.857c-0.56,0-1.821,1.062-2.729,2.055
		c-0.263,0-0.469-0.262-0.444-0.504c0.94-1.311,2.902-3.252,4.638-3.252c0.675,0,1.345,0.857,0.909,1.941l-2.522,6.536
		c-0.149,0.411-0.297,0.994-0.297,1.38c0,0.491,0.239,1.051,0.856,1.051c0.672,0,1.876-0.674,3.191-2.168
		c1.701-1.937,2.521-4.221,2.521-5.601c0-0.696-0.056-1.404-0.262-2.077c0.056-0.617,0.525-1.062,1.084-1.062
		c0.942,0,1.142,1.084,1.142,1.814c0,2.147-2.204,6.308-4.726,8.42c-2.222,1.849-3.865,2.135-4.566,2.135
		c-0.765,0-1.348-0.868-1.348-1.757c0-0.639,0.291-1.666,0.73-2.808L709.54,287.913z"/>
	<path fill="#005747" d="M725.488,286.884c0.765,0,1.267,0.491,1.472,1.05c-0.473,1.735-1.699,4.257-3.932,6.332
		c-1.668,1.529-2.548,1.917-2.844,1.917c-0.264,0-0.433-0.217-0.433-0.559c0-2.088,1.779-5.922,3.659-7.598
		C724.318,287.204,724.792,286.884,725.488,286.884z M727.69,286.554c-0.147-0.285-0.467-0.549-0.587-0.605
		c-0.177-0.09-0.377-0.183-0.702-0.183c-0.765,0-1.495,0.206-2.642,0.845c-1.204,0.685-2.457,1.86-3.872,3.79
		c-1.935,2.666-2.58,5.017-2.58,5.69c0,0.822,0.481,1.633,1.29,1.633c1.381,0,4.369-2.021,6.451-4.6l0.091,0.035l-0.968,2.638
		c-0.236,0.672-0.293,0.934-0.293,1.152c0,0.229,0.172,0.776,0.845,0.776c1.615,0,3.697-1.633,4.931-3.276
		c0-0.238-0.206-0.388-0.412-0.388c-1.665,1.473-2.516,1.976-3.023,1.976c-0.229,0-0.377-0.184-0.205-0.674
		c0.946-2.67,3.498-9.149,3.938-10.246c-0.184-0.376-0.937-0.673-1.438-0.434L727.69,286.554z"/>
	<path fill="#005747" d="M734.963,291.69l0.086,0.056c2.083-3.162,4.987-6.391,7.19-6.391c1.139,0,1.634,0.617,1.634,1.587
		c0,0.467-0.233,1.381-0.467,2.054c-0.531,1.459-2.639,6.239-2.73,6.48c-0.114,0.284-0.143,0.559,0.067,0.559
		c0.492,0,1.901-0.97,2.748-1.998c0.411-0.057,0.467,0.172,0.467,0.41c-1.114,1.874-3.425,3.276-5.04,3.276
		c-0.263,0-0.702-0.377-0.702-0.73c0-0.263,0.086-0.469,0.702-1.928c0.616-1.439,1.706-4.312,2.379-5.773
		c0.235-0.535,0.617-1.563,0.617-2.145c0-0.355-0.029-0.708-0.474-0.708c-0.697,0-2.432,1.474-4.041,3.493
		c-1.563,1.939-2.762,4.221-4.491,7.449c-0.146,0.264-0.267,0.343-0.527,0.343c-0.319,0-1.112-0.079-0.845-0.754
		c0.15-0.387,3.249-8.829,3.398-9.24c0.149-0.376,0.149-0.673-0.092-0.673c-0.673,0-1.7,0.617-2.668,1.472
		c-0.233,0-0.376-0.204-0.354-0.445c1.115-1.528,2.909-2.728,4.369-2.728c0.707,0,1.026,0.525,0.764,1.2L734.963,291.69z"/>
	<path fill="#005747" d="M749.739,287.798c0.144-0.331,0.144-0.559-0.057-0.559c-0.212,0-0.971,0.354-2.438,1.552
		c-0.261-0.034-0.439-0.263-0.375-0.502c1.609-1.849,3.868-2.934,4.833-2.934c0.21,0,0.359,0.183,0.474,0.297
		c0.171,0.171,0.171,0.434-0.184,1.29l-3.479,8.328c-0.12,0.296-0.149,0.639,0.08,0.639c0.5,0,2.054-1.015,3.052-2.167
		c0.291,0.034,0.439,0.239,0.439,0.501c-0.439,0.844-3.458,3.481-5.485,3.481c-0.141,0-0.322-0.079-0.466-0.25
		c-0.178-0.218-0.269-0.48-0.121-0.798L749.739,287.798z M753.485,279.436c0,0.912-0.636,1.848-1.549,1.848
		c-0.759,0-1.05-0.583-1.05-1.118c0-0.651,0.434-1.848,1.58-1.848C753.139,278.318,753.485,278.785,753.485,279.436z"/>
	<path fill="#005747" d="M761.439,286.884c0.759,0,1.256,0.491,1.467,1.05c-0.473,1.735-1.706,4.256-3.931,6.332
		c-1.673,1.529-2.558,1.917-2.843,1.917c-0.268,0-0.445-0.217-0.445-0.559c0-2.088,1.793-5.922,3.669-7.598
		C760.264,287.204,760.732,286.884,761.439,286.884z M763.635,286.554c-0.144-0.285-0.461-0.549-0.579-0.605
		c-0.179-0.091-0.389-0.183-0.708-0.183c-0.758,0-1.494,0.206-2.644,0.845c-1.197,0.683-2.457,1.86-3.867,3.79
		c-1.935,2.666-2.58,5.017-2.58,5.69c0,0.822,0.468,1.633,1.29,1.633c1.381,0,4.371-2.021,6.453-4.6l0.087,0.035l-0.97,2.638
		c-0.234,0.672-0.286,0.934-0.286,1.152c0,0.229,0.171,0.776,0.844,0.776c1.615,0,3.694-1.633,4.923-3.276
		c0-0.238-0.199-0.388-0.405-0.388c-1.677,1.473-2.525,1.976-3.022,1.976c-0.233,0-0.377-0.184-0.205-0.674
		c0.941-2.67,3.488-9.15,3.928-10.246c-0.175-0.376-0.94-0.673-1.437-0.434L763.635,286.554z"/>
</g>
<line fill="none" stroke="#005747" stroke-width="2" stroke-miterlimit="10" x1="765.893" y1="263.688" x2="143.005" y2="263.688"/>
</svg>
